<svg width="100" height="100" viewBox="0 0 100 100" fill="none" xmlns="http://www.w3.org/2000/svg">
  <rect width="100" height="100" rx="20" fill="#1e40af"/>
  <path d="M50 25C35.083 25 23 37.083 23 52C23 66.917 35.083 79 50 79C64.917 79 77 66.917 77 52C77 37.083 64.917 25 50 25Z" fill="white"/>
  <path d="M50 33C39.507 33 31 41.507 31 52C31 62.493 39.507 71 50 71C60.493 71 69 62.493 69 52C69 41.507 60.493 33 50 33Z" fill="#1e40af"/>
  <circle cx="50" cy="52" r="8" fill="white"/>
  <path d="M44 52L48 56L56 48" stroke="#1e40af" stroke-width="2" stroke-linecap="round" stroke-linejoin="round"/>
</svg>
