<?xml version="1.0" encoding="iso-8859-1"?>
<!-- Uploaded to: SVG Repo, www.svgrepo.com, Generator: SVG Repo Mixer Tools -->
<svg height="800px" width="800px" version="1.1" id="Layer_1" xmlns="http://www.w3.org/2000/svg" xmlns:xlink="http://www.w3.org/1999/xlink" 
	 viewBox="0 0 512 512" xml:space="preserve">
<path style="fill:#11BBA3;" d="M256,0c-47.053,0-85.333,38.281-85.333,85.333c0,9.743,1.63,19.302,4.846,28.411
	c1.569,4.445,6.445,6.774,10.887,5.206c4.445-1.569,6.775-6.444,5.206-10.887c-1.625-4.603-2.74-9.353-3.343-14.196h25.292
	c0.554,11.729,2.223,23.093,4.947,33.264c0.692,2.582,2.508,4.545,4.772,5.558c1.526,2.315,4.146,3.844,7.126,3.844h66.133
	c4.713,0,8.533-3.821,8.533-8.533c0-4.713-3.821-8.533-8.533-8.533h-1.247c1.674-8.089,2.74-16.734,3.158-25.6h25.28
	c-0.685,5.501-2.019,10.88-4.022,16.064c-1.698,4.396,0.489,9.337,4.884,11.035c1.011,0.391,2.051,0.576,3.073,0.576
	c3.423,0,6.654-2.075,7.962-5.46c3.79-9.806,5.711-20.151,5.711-30.748C341.333,38.281,303.052,0,256,0z M196.917,51.2h19.723
	c-1.633,7.916-2.699,16.508-3.11,25.6h-25.244C189.442,67.57,192.444,58.912,196.917,51.2z M272.068,34.133h-32.137
	c4.983-10.946,11.067-17.067,16.068-17.067S267.084,23.187,272.068,34.133z M286.339,24.203c5.35,2.667,10.301,6.014,14.743,9.931
	h-10.49C289.305,30.592,287.885,27.271,286.339,24.203z M221.408,34.133h-10.49c4.442-3.916,9.392-7.264,14.743-9.931
	C224.114,27.271,222.694,30.592,221.408,34.133z M234.197,51.2h43.605c1.806,7.505,3.085,16.095,3.573,25.6h-50.752
	C231.112,67.295,232.391,58.705,234.197,51.2z M295.36,51.2h19.723c4.473,7.712,7.475,16.37,8.632,25.6H298.47
	C298.058,67.708,296.993,59.116,295.36,51.2z M277.814,119.467h-43.63c-1.882-7.934-3.082-16.614-3.549-25.6h50.73
	C280.898,102.852,279.695,111.534,277.814,119.467z"/>
<path style="fill:#E8E6D9;" d="M383.44,151.108c-7.86-13.828-25.439-18.668-39.268-10.811c-13.829,7.859-18.669,25.44-10.811,39.268
	c11.569,20.357,24.759,53.315,21.908,94.725c-2.48,36.007-16.462,64.483-30.009,84.108h-24.13
	c14.75-13.011,23.846-32.282,23.093-53.665c-1.274-36.118-31.1-65.284-67.236-65.794c-38.156-0.539-69.254,30.229-69.254,68.26
	c0,20.397,8.956,38.69,23.137,51.2h-24.13c-13.546-19.626-27.527-48.1-30.009-84.108c-2.852-41.409,10.339-74.368,21.908-94.725
	c7.858-13.829,3.019-31.409-10.811-39.268c-13.829-7.857-31.409-3.018-39.268,10.811c-15.482,27.244-33.131,71.415-29.292,127.141
	c4.848,70.382,42.13,119.093,62.865,141.037v75.646c0,9.426,7.641,17.067,17.067,17.067h153.6c9.426,0,17.067-7.641,17.067-17.067
	v-75.646c20.735-21.943,58.017-70.655,62.865-141.037C416.57,222.524,398.921,178.352,383.44,151.108z"/>
<g>
	<path style="fill:#D1CDB2;" d="M182.864,494.933v-75.646c-20.735-21.943-58.017-70.655-62.865-141.037
		c-3.839-55.726,13.81-99.898,29.292-127.141c3.421-6.019,8.685-10.333,14.678-12.64c-13.09-5.069-28.265,0.07-35.409,12.64
		c-15.482,27.244-33.131,71.415-29.292,127.141c4.848,70.382,42.13,119.093,62.865,141.037v75.646
		c0,9.425,7.641,17.067,17.067,17.067h20.731C190.505,512,182.864,504.358,182.864,494.933z"/>
	<path style="fill:#D1CDB2;" d="M192.477,332.223c1.849,3.982,3.792,7.769,5.789,11.36c3.489,5.519,7.728,10.516,12.603,14.818
		H231.6c-14.18-12.51-23.137-30.803-23.137-51.2c0-34.169,25.108-62.459,57.878-67.465c-3.061-0.473-6.182-0.75-9.356-0.795
		c-38.154-0.541-69.252,30.227-69.252,68.258C187.733,316.036,189.419,324.475,192.477,332.223z"/>
</g>
<g>
	<path style="fill:#66BF00;" d="M122.255,96.743c1.651-1.651,3.943-2.496,6.27-2.32c3.324,0.256,81.759,6.627,113.654,38.524
		c26.857,26.857,29.507,66.282,6.034,89.756c-10.726,10.726-24.78,15.997-39.447,15.997c-17.429,0-35.724-7.446-50.308-22.031
		c-31.895-31.895-38.268-110.332-38.524-113.654C119.755,100.685,120.602,98.395,122.255,96.743z"/>
	<path style="fill:#66BF00;" d="M390.189,96.743c-1.651-1.651-3.943-2.496-6.27-2.32c-3.324,0.256-81.759,6.627-113.654,38.524
		c-26.857,26.857-29.507,66.282-6.034,89.756c10.726,10.726,24.78,15.997,39.447,15.997c17.429,0,35.724-7.446,50.308-22.031
		c31.895-31.895,38.268-110.332,38.524-113.654C392.689,100.685,391.841,98.395,390.189,96.743z"/>
</g>
<path style="fill:#58AB23;" d="M391.238,98.043c-3.039,23.805-12.393,76.933-37.252,101.793
	c-14.583,14.585-32.878,22.031-50.307,22.031c-7.945,0-15.705-1.561-22.858-4.683l16.333-16.274h33.074c4.418,0,8-3.582,8-8
	c0-4.418-3.582-8-8-8h-17.015l34.731-34.605c3.131-3.119,3.139-8.183,0.021-11.313c-3.119-3.131-8.185-3.139-11.313-0.021
	l-34.625,34.5v-16.766c0-4.418-3.582-8-8-8c-4.418,0-8,3.582-8,8v32.707l-19.059,18.99c-0.93-0.812-1.847-1.647-2.734-2.533
	c-3.141-3.141-5.798-6.575-8.009-10.219c-2.21,3.644-4.868,7.077-8.009,10.219c-0.886,0.886-1.804,1.722-2.734,2.533l-19.059-18.99
	v-32.707c0-4.418-3.582-8-8-8c-4.418,0-8,3.582-8,8v16.766l-34.625-34.5c-3.129-3.118-8.194-3.11-11.313,0.021
	c-3.118,3.13-3.109,8.195,0.021,11.313l34.731,34.605h-17.015c-4.418,0-8,3.582-8,8c0,4.418,3.582,8,8,8h33.074l16.333,16.274
	c-7.154,3.122-14.913,4.683-22.859,4.683c-17.429,0-35.724-7.446-50.308-22.031c-24.86-24.86-34.214-77.989-37.252-101.793
	c-0.949,1.46-1.407,3.204-1.271,4.972c0.256,3.324,6.627,81.759,38.524,113.654c14.583,14.585,32.878,22.031,50.308,22.031
	c14.667,0,28.721-5.27,39.447-15.997c3.141-3.141,5.798-6.575,8.009-10.219c2.21,3.644,4.868,7.077,8.009,10.219
	c10.726,10.726,24.78,15.997,39.447,15.997c17.429,0,35.724-7.446,50.308-22.031c31.895-31.895,38.268-110.332,38.524-113.654
	C392.645,101.246,392.187,99.503,391.238,98.043z"/>
</svg>